<?xml version="1.0" encoding="utf-8"?>
<!-- Generator: Adobe Illustrator 26.0.2, SVG Export Plug-In . SVG Version: 6.00 Build 0)  -->
<svg version="1.1" id="图层_1" xmlns="http://www.w3.org/2000/svg" xmlns:xlink="http://www.w3.org/1999/xlink" x="0px" y="0px"
	 viewBox="0 0 32 32" style="enable-background:new 0 0 32 32;" xml:space="preserve">
<style type="text/css">
	.st0{fill:#FFFFFF;}
</style>
<g>
	<g>
		<g>
			<circle cx="16" cy="13.01" r="11.89"/>
		</g>
		<path d="M4.57,12.13h11.29c0.23,0,0.46,0.18,0.46,0.46v12.77c0,0.18-0.09,0.32-0.28,0.41L4.75,30.8c-0.28,0.14-0.6-0.09-0.6-0.41
			V12.55C4.11,12.32,4.34,12.13,4.57,12.13z"/>
		<path d="M27.43,12.13H16.41c-0.23,0-0.41,0.18-0.41,0.46v12.77c0,0.18,0.09,0.32,0.23,0.41l11.02,5.07
			c0.28,0.14,0.6-0.09,0.6-0.41V12.55C27.89,12.32,27.71,12.13,27.43,12.13z"/>
	</g>
	<path class="st0" d="M7.7,7.94h4.75l2.44,6.91c0.32,0.97,0.78,2.95,1.11,4.61c0.32-1.61,0.83-3.64,1.11-4.61l2.4-6.91h4.75v15.07
		h-3.09v-7.14c0-1.15,0.09-3.41,0.09-5.3c-0.51,2.03-1.15,4.24-1.47,5.3l-2.49,7.1h-2.58l-2.53-7.1c-0.37-1.06-0.97-3.13-1.47-5.16
		c0.05,1.84,0.09,4.06,0.09,5.16v7.1H7.7V7.94z"/>
</g>
</svg>
