<?xml version="1.0" encoding="utf-8"?>
<!-- Generator: Adobe Illustrator 26.0.2, SVG Export Plug-In . SVG Version: 6.00 Build 0)  -->
<svg version="1.1" id="图层_1" xmlns="http://www.w3.org/2000/svg" xmlns:xlink="http://www.w3.org/1999/xlink" x="0px" y="0px"
	 viewBox="0 0 32 32" style="enable-background:new 0 0 32 32;" xml:space="preserve">
<style type="text/css">
	.st0{display:none;}
	.st1{display:inline;}
	.st2{display:inline;fill:#FFFFFF;}
	.st3{fill:#FFFFFF;}
</style>
<g class="st0">
	<g class="st1">
		<g>
			<circle cx="16" cy="13" r="11.9"/>
		</g>
		<path d="M4.6,12.1h11.3c0.2,0,0.5,0.2,0.5,0.5v12.8c0,0.2-0.1,0.3-0.3,0.4l-11.3,5c-0.3,0.1-0.6-0.1-0.6-0.4V12.5
			C4.1,12.3,4.3,12.1,4.6,12.1z"/>
		<path d="M27.4,12.1h-11c-0.2,0-0.4,0.2-0.4,0.5v12.8c0,0.2,0.1,0.3,0.2,0.4l11,5.1c0.3,0.1,0.6-0.1,0.6-0.4V12.5
			C27.9,12.3,27.7,12.1,27.4,12.1z"/>
	</g>
	<path class="st2" d="M7.7,7.9h4.8l2.4,6.9c0.3,1,0.8,2.9,1.1,4.6c0.3-1.6,0.8-3.6,1.1-4.6l2.4-6.9h4.8V23h-3.1v-7.1
		c0-1.1,0.1-3.4,0.1-5.3c-0.5,2-1.1,4.2-1.5,5.3L17.3,23h-2.6l-2.5-7.1c-0.4-1.1-1-3.1-1.5-5.2c0.1,1.8,0.1,4.1,0.1,5.2V23H7.7V7.9z
		"/>
</g>
<g>
	<circle class="st3" cx="16" cy="13" r="11.9"/>
	<path class="st3" d="M4.6,12.1h11.3c0.3,0,0.5,0.2,0.5,0.5l0,0v12.8c0,0.2-0.1,0.3-0.3,0.4l-11.3,5c-0.2,0.1-0.5,0-0.6-0.2
		c0-0.1,0-0.1,0-0.2V12.6C4.1,12.3,4.3,12.1,4.6,12.1C4.5,12.1,4.6,12.1,4.6,12.1z"/>
	<path class="st3" d="M27.4,12.1h-11c-0.2,0-0.4,0.2-0.4,0.4c0,0,0,0,0,0v12.8c0,0.2,0.1,0.3,0.2,0.4l11,5.1c0.2,0.1,0.5,0,0.6-0.2
		c0-0.1,0-0.1,0-0.2V12.6C27.9,12.3,27.7,12.1,27.4,12.1z"/>
	<path d="M7.7,7.9h4.7l2.4,6.9c0.5,1.5,0.8,3.1,1.1,4.6c0.3-1.6,0.8-3.6,1.1-4.6l2.4-6.9h4.8V23h-3.1v-7.1c0-1.1,0.1-3.4,0.1-5.3
		c-0.5,2-1.1,4.2-1.5,5.3L17.3,23h-2.6l-2.5-7.1c-0.4-1.1-1-3.1-1.5-5.2c0.1,1.9,0.1,4.1,0.1,5.2V23H7.7V7.9z"/>
</g>
</svg>
