<svg id="图层_1" data-name="图层 1" xmlns="http://www.w3.org/2000/svg" viewBox="0 0 23.78 29.77"><circle cx="11.89" cy="11.89" r="11.89" style="fill:#fff"/><path d="M4.57,12.13H15.86a.46.46,0,0,1,.46.46V25.36a.44.44,0,0,1-.27.41l-11.3,5a.43.43,0,0,1-.6-.42V12.55A.4.4,0,0,1,4.57,12.13Z" transform="translate(-4.11 -1.12)" style="fill:#fff"/><path d="M27.43,12.13h-11a.43.43,0,0,0-.41.46V25.36a.47.47,0,0,0,.23.41l11,5.07a.43.43,0,0,0,.6-.41V12.55C27.89,12.32,27.71,12.13,27.43,12.13Z" transform="translate(-4.11 -1.12)" style="fill:#fff"/><path d="M7.7,7.94h4.75l2.44,6.91A43.31,43.31,0,0,1,16,19.46c.32-1.61.83-3.64,1.11-4.61L19.5,7.94h4.75V23H21.16V15.86c0-1.15.09-3.41.09-5.3-.5,2-1.15,4.24-1.47,5.3L17.29,23H14.71l-2.54-7.1c-.36-1.06-1-3.13-1.47-5.16.05,1.85.09,4.06.09,5.16V23H7.7Z" transform="translate(-4.11 -1.12)"/></svg>