<svg xmlns="http://www.w3.org/2000/svg" width="1280" height="720" viewBox="0 0 1280 720" fill="none">
  <rect width="1280" height="720" rx="28" fill="#EEF2F6"/>
  <rect x="56" y="56" width="1168" height="608" rx="28" fill="#FFFFFF"/>
  <rect x="132" y="96" width="520" height="44" rx="22" fill="#E8EDF4"/>
  <rect x="132" y="164" width="620" height="320" rx="24" fill="#F8FAFC" stroke="#D7DEE7"/>
  <rect x="156" y="194" width="572" height="48" rx="14" fill="#EAF2FF"/>
  <rect x="156" y="258" width="572" height="48" rx="14" fill="#F4F6F8"/>
  <rect x="156" y="322" width="572" height="48" rx="14" fill="#F4F6F8"/>
  <rect x="156" y="386" width="572" height="48" rx="14" fill="#F4F6F8"/>
  <rect x="792" y="164" width="360" height="320" rx="24" fill="#FBF7EE"/>
  <path d="M904 302C904 269.967 929.967 244 962 244H982C1014.03 244 1040 269.967 1040 302V322C1040 354.033 1014.03 380 982 380H962C929.967 380 904 354.033 904 322V302Z" fill="#E8DCC5"/>
  <text x="132" y="84" fill="#6B7280" font-family="Arial, sans-serif" font-size="20">Search Placeholder</text>
  <text x="156" y="226" fill="#5177B8" font-family="Arial, sans-serif" font-size="18">Search Result Item</text>
  <text x="820" y="210" fill="#8A7E67" font-family="Arial, sans-serif" font-size="18">Directory Context</text>
</svg>
